<?xml version="1.0" encoding="utf-8"?>
<!-- Generator: Adobe Illustrator 15.1.0, SVG Export Plug-In . SVG Version: 6.00 Build 0)  -->
<!DOCTYPE svg PUBLIC "-//W3C//DTD SVG 1.1//EN" "http://www.w3.org/Graphics/SVG/1.1/DTD/svg11.dtd">
<svg version="1.1" xmlns="http://www.w3.org/2000/svg" xmlns:xlink="http://www.w3.org/1999/xlink" x="0px" y="0px"
	 width="1725.273px" height="432px" viewBox="0 0 1725.273 432" enable-background="new 0 0 1725.273 432" xml:space="preserve">
<g id="Layer_3" display="none">
	<rect display="inline" fill="#2A365E" width="1725.273" height="432"/>
</g>
<g id="text">
	<g>
		<path d="M1104.621,166.006h-6c-1.168,0-2.25-0.375-3.25-1.125s-1.418-2.039-1.25-3.875c0.832-8.332-2.125-15.207-8.875-20.625
			c-6.75-5.414-15.625-8.125-26.625-8.125c-13,0-24.043,2.543-33.125,7.625c-9.086,5.086-14.711,12.543-16.875,22.375
			c-0.5,2.5-0.75,4.668-0.75,6.5c0,5,1.539,9.211,4.625,12.625c3.082,3.418,7.539,6.5,13.375,9.25
			c5.832,2.75,14.332,6.043,25.5,9.875c16,5.5,27.582,11.211,34.75,17.125c7.164,5.918,10.75,13.711,10.75,23.375
			c0,2.836-0.418,6.336-1.25,10.5c-3.168,15-10.875,26.375-23.125,34.125s-28.125,11.625-47.625,11.625
			c-12.168,0-22.461-1.793-30.875-5.375c-8.418-3.582-14.75-8.457-19-14.625c-4.25-6.164-6.375-13-6.375-20.5
			c0-2,0.082-3.5,0.25-4.5c0.164-1.5,0.707-2.707,1.625-3.625c0.914-0.914,2.125-1.375,3.625-1.375h6c3,0,4.5,1.668,4.5,5
			c-0.336,5,0.832,9.793,3.5,14.375c2.664,4.586,7.082,8.336,13.25,11.25c6.164,2.918,14,4.375,23.5,4.375
			c15.832,0,28.5-2.914,38-8.75c9.5-5.832,15.332-13.832,17.5-24c0.5-2,0.75-3.914,0.75-5.75c0-5-1.711-9.207-5.125-12.625
			c-3.418-3.414-8.211-6.457-14.375-9.125c-6.168-2.664-15.418-6.164-27.75-10.5c-14.668-5-25.25-10.457-31.75-16.375
			c-6.5-5.914-9.75-13.625-9.75-23.125c0-4.332,0.414-8.25,1.25-11.75c2.832-13,9.875-23.414,21.125-31.25
			c11.25-7.832,25.875-11.75,43.875-11.75c11.332,0,20.875,1.875,28.625,5.625s13.539,8.543,17.375,14.375
			c3.832,5.836,5.75,11.918,5.75,18.25c0,1.336-0.168,3.168-0.5,5.5C1109.203,164.342,1107.453,166.006,1104.621,166.006z"/>
		<path d="M1283.369,168.506c0.332-0.832,0.957-1.664,1.875-2.5c0.914-0.832,2.125-1.25,3.625-1.25h6c2.832,0,4.25,1.086,4.25,3.25
			c0,0.668-0.336,1.836-1,3.5l-59.75,117c-1.168,2.336-2.461,3.961-3.875,4.875c-1.418,0.918-3.211,1.375-5.375,1.375h-4.75
			c-4.336,0-6.75-2.082-7.25-6.25l-11-98.5l-51.75,98.5c-2.168,4.168-5.418,6.25-9.75,6.25h-5c-2.168,0-3.75-0.5-4.75-1.5
			s-1.668-2.582-2-4.75l-10.75-118c-0.168-1.664,0.25-3.039,1.25-4.125c1-1.082,2.5-1.625,4.5-1.625h4.25c3,0,4.664,1.25,5,3.75
			l9.25,104l54-102.75c1.664-3.332,4.082-5,7.25-5h6c3.332,0,5.164,1.668,5.5,5l11.25,102.75L1283.369,168.506z"/>
		<path d="M1304.617,293.256c-1.168,1-2.586,1.5-4.25,1.5h-4.25c-1.668,0-2.918-0.5-3.75-1.5c-0.836-1-1.086-2.332-0.75-4l25.25-119
			c0.332-1.664,1.125-3,2.375-4s2.707-1.5,4.375-1.5h4.25c1.664,0,2.875,0.5,3.625,1.5s0.957,2.336,0.625,4l-25.25,119
			C1306.531,290.924,1305.781,292.256,1304.617,293.256z M1340.617,136.506c-1.336,1-2.836,1.5-4.5,1.5h-9.5
			c-1.668,0-2.918-0.5-3.75-1.5c-0.836-1-1.086-2.332-0.75-4l2.25-9.5c0.332-1.664,1.082-3.039,2.25-4.125
			c1.164-1.082,2.582-1.625,4.25-1.625h9.5c1.664,0,2.957,0.543,3.875,1.625c0.914,1.086,1.207,2.461,0.875,4.125l-2.25,9.5
			C1342.699,134.174,1341.949,135.506,1340.617,136.506z"/>
		<path d="M1340.367,336.756c-0.336,1.664-1.086,3-2.25,4c-1.168,1-2.586,1.5-4.25,1.5h-4.25c-1.664,0-2.914-0.5-3.75-1.5
			c-0.832-1-1.082-2.336-0.75-4l35.5-166.5c0.332-1.664,1.082-3,2.25-4c1.164-1,2.582-1.5,4.25-1.5h4.25c1.664,0,2.914,0.5,3.75,1.5
			c0.832,1,1.082,2.336,0.75,4l-2.5,11.75c6-6.5,12.289-11.414,18.875-14.75c6.582-3.332,14.957-5,25.125-5
			c15.332,0,26.457,4.375,33.375,13.125c6.914,8.75,10.375,19.961,10.375,33.625c0,5.168-0.336,9.75-1,13.75c-0.5,3.336-1.5,8-3,14
			c-4.5,17.336-11.961,31.75-22.375,43.25c-10.418,11.5-24.793,17.25-43.125,17.25c-18.836,0-31.668-6.582-38.5-19.75
			L1340.367,336.756z M1359.867,250.256c0,9.336,2.582,17.086,7.75,23.25c5.164,6.168,13.164,9.25,24,9.25
			c12.664,0,23.164-4.332,31.5-13c8.332-8.664,14.5-19.664,18.5-33c1.164-4,2.164-8.664,3-14c0.832-5.5,1.25-10.25,1.25-14.25
			c0-21.164-9.5-31.75-28.5-31.75c-9,0-17.168,2.168-24.5,6.5c-7.336,4.336-13.336,9.875-18,16.625
			c-4.668,6.75-7.918,13.711-9.75,20.875c-1.168,4.668-2.586,11.168-4.25,19.5C1360.199,244.592,1359.867,247.924,1359.867,250.256z
			"/>
		<path d="M1574.616,174.006c7.664,7.836,11.5,18.918,11.5,33.25c0,6.836-0.668,13.336-2,19.5l-0.75,3.75
			c-0.336,1.668-1.168,3-2.5,4c-1.336,1-2.836,1.5-4.5,1.5h-89c-1,5.168-1.5,10.25-1.5,15.25c0,21,9.832,31.5,29.5,31.5
			c7.832,0,14.5-0.957,20-2.875c5.5-1.914,9.582-3.957,12.25-6.125c2.664-2.164,5.25-4.582,7.75-7.25c1.832-2,3.164-3.25,4-3.75
			c0.832-0.5,2.25-0.75,4.25-0.75h4c1.5,0,2.707,0.461,3.625,1.375c0.914,0.918,1.125,2.125,0.625,3.625
			c-1,3.836-3.793,8.086-8.375,12.75c-4.586,4.668-10.961,8.75-19.125,12.25c-8.168,3.5-17.836,5.25-29,5.25
			c-13.5,0-24.375-4.289-32.625-12.875c-8.25-8.582-12.375-19.957-12.375-34.125c0-3.332,0.25-6.832,0.75-10.5
			c0.832-5,2.25-11.664,4.25-20c4.332-17.164,12.5-31.039,24.5-41.625c12-10.582,25.75-15.875,41.25-15.875
			C1555.78,162.256,1566.948,166.174,1574.616,174.006z M1571.616,207.256c0-9.332-2.543-16.75-7.625-22.25
			c-5.086-5.5-12.711-8.25-22.875-8.25c-8.168,0-15.793,2-22.875,6c-7.086,4-13.043,9.461-17.875,16.375
			c-4.836,6.918-8.168,14.543-10,22.875h79.5C1571.03,217.174,1571.616,212.256,1571.616,207.256z"/>
		<path d="M632.872,126.506c1.5-2,2.957-3.625,4.375-4.875c1.414-1.25,3.539-1.875,6.375-1.875h17c1.832,0,3.414,0.668,4.75,2
			c1.332,1.336,2,2.918,2,4.75v161.5c0,1.836-0.668,3.418-2,4.75c-1.336,1.336-2.918,2-4.75,2h-20.25c-1.835,0-3.417-0.664-4.75-2
			c-1.336-1.332-2-2.914-2-4.75v-97.75l-32.5,56.25c-2.668,4.168-5.75,6.25-9.25,6.25h-13c-3.5,0-6.586-2.082-9.25-6.25l-32.5-56.25
			v97.75c0,1.836-0.668,3.418-2,4.75c-1.336,1.336-2.918,2-4.75,2h-20.25c-1.836,0-3.418-0.664-4.75-2c-1.336-1.332-2-2.914-2-4.75
			v-161.5c0-1.832,0.664-3.414,2-4.75c1.332-1.332,2.914-2,4.75-2h17c2.832,0,4.957,0.625,6.375,1.875
			c1.414,1.25,2.875,2.875,4.375,4.875l47.5,82.5L632.872,126.506z"/>
		<path d="M785.996,175.756c10.082,9,15.125,21.918,15.125,38.75v73.5c0,1.836-0.668,3.418-2,4.75c-1.336,1.336-2.918,2-4.75,2h-19
			c-1.836,0-3.418-0.664-4.75-2c-1.336-1.332-2-2.914-2-4.75v-8.25c-3.836,5.336-9.125,9.586-15.875,12.75s-14.875,4.75-24.375,4.75
			c-14,0-25.086-3.625-33.25-10.875c-8.168-7.25-12.25-16.625-12.25-28.125c0-11.164,3.957-20.039,11.875-26.625
			c7.914-6.582,18.957-11.125,33.125-13.625l40.75-7c0-6.332-2.125-11.039-6.375-14.125c-4.25-3.082-9.961-4.625-17.125-4.625
			c-3.836,0-6.961,0.543-9.375,1.625c-2.418,1.086-4.793,2.711-7.125,4.875c-2.5,2.336-5.25,3.5-8.25,3.5h-23.25
			c-1.668,0-3.043-0.539-4.125-1.625c-1.086-1.082-1.543-2.375-1.375-3.875c1-5.164,3.625-10.414,7.875-15.75
			c4.25-5.332,10.25-9.789,18-13.375c7.75-3.582,16.957-5.375,27.625-5.375C762.285,162.256,775.91,166.756,785.996,175.756z
			 M768.621,236.756l-34,6c-6.668,1.168-11.543,2.875-14.625,5.125c-3.086,2.25-4.625,5.293-4.625,9.125
			c0,3.336,1.707,5.875,5.125,7.625c3.414,1.75,7.707,2.625,12.875,2.625c7.332,0,13.664-1.332,19-4
			c5.332-2.664,9.375-6.125,12.125-10.375s4.125-8.789,4.125-13.625V236.756z"/>
		<path d="M854.371,335.506c0,1.832-0.668,3.414-2,4.75c-1.336,1.332-2.918,2-4.75,2h-19c-1.836,0-3.418-0.668-4.75-2
			c-1.336-1.336-2-2.918-2-4.75v-164c0-1.832,0.664-3.414,2-4.75c1.332-1.332,2.914-2,4.75-2h19c1.832,0,3.414,0.668,4.75,2
			c1.332,1.336,2,2.918,2,4.75v5.75c3.5-4,8.332-7.5,14.5-10.5c6.164-3,13.914-4.5,23.25-4.5c10.832,0,20.375,2.711,28.625,8.125
			c8.25,5.418,14.707,12.586,19.375,21.5c4.664,8.918,7.25,18.625,7.75,29.125c0.164,1.668,0.25,4.586,0.25,8.75
			c0,4.168-0.086,7.086-0.25,8.75c-0.5,10.5-3.086,20.211-7.75,29.125c-4.668,8.918-11.125,16.086-19.375,21.5
			c-8.25,5.418-17.793,8.125-28.625,8.125c-9.168,0-16.836-1.5-23-4.5c-6.168-3-11.086-6.5-14.75-10.5V335.506z M907.371,201.506
			c-5.668-6.164-13.25-9.25-22.75-9.25c-8.336,0-15.25,2.461-20.75,7.375c-5.5,4.918-8.668,11.793-9.5,20.625
			c-0.168,1.668-0.25,4.836-0.25,9.5c0,4.668,0.082,7.836,0.25,9.5c0.832,8.5,4.039,15.293,9.625,20.375
			c5.582,5.086,12.457,7.625,20.625,7.625c8.5,0,15.5-2.5,21-7.5s8.75-12.664,9.75-23c0.332-3.332,0.5-5.664,0.5-7
			C915.871,217.092,913.035,207.674,907.371,201.506z"/>
	</g>
</g>
<g id="logo">
	<g id="Layer_1_1_">
		<circle id="whitecircle_1_" fill="#FFFFFF" cx="252.682" cy="215.756" r="169.864"/>
		<g id="mapswipelogo_copy_2">
			<g id="bgcolors_1_">
				
					<radialGradient id="SVGID_1_" cx="-2645.418" cy="854.8789" r="274.3834" gradientTransform="matrix(1 0 0 1 2916 -684.4287)" gradientUnits="userSpaceOnUse">
					<stop  offset="0" style="stop-color:#D18E38"/>
					<stop  offset="1" style="stop-color:#BD4927"/>
				</radialGradient>
				<path fill="url(#SVGID_1_)" d="M389.001,288.094c-2.935,6.079-6.223,11.852-9.833,17.311c1.348-0.888,2.397-1.913,3.158-3.062
					c3.293-5.439,7.557-12.771,10.477-18.419c11.016-25.388,15.007-39.88,15.465-70.662c0.155,3.399-1.215,6.172-4.258,8.183
					C404.108,244.018,399.292,266.779,389.001,288.094"/>
				
					<radialGradient id="SVGID_2_" cx="-2638.5454" cy="854.8408" r="270.2415" gradientTransform="matrix(1 0 0 1 2916 -684.4287)" gradientUnits="userSpaceOnUse">
					<stop  offset="0" style="stop-color:#D53924"/>
					<stop  offset="1" style="stop-color:#C30011"/>
				</radialGradient>
				<path fill="url(#SVGID_2_)" d="M99.875,245.693c1.41,6.078,3.489,14.139,5.303,20.107c3.364,9.298,16.897,22.506,37.541,36.706
					c-2.053-18.28,0.821-40.467,8.938-64.638c-33.703-23.186-53.108-44.368-50.655-56.341
					C98.606,194.206,94.147,217.804,99.875,245.693"/>
				
					<radialGradient id="SVGID_3_" cx="-2649.7969" cy="861.9453" r="282.7857" gradientTransform="matrix(1 0 0 1 2916 -684.4287)" gradientUnits="userSpaceOnUse">
					<stop  offset="0" style="stop-color:#6A9DB6"/>
					<stop  offset="1" style="stop-color:#2E55AF"/>
				</radialGradient>
				<path fill="url(#SVGID_3_)" d="M396.602,174.395c-24.4,40.032-224.327-72.638-207.331-100.062
					c-6.963,3.074-14.478,7.019-22.41,12.219c-11.768,8.435-14.217,10.191-24.674,20.208
					c-10.788,11.777-11.208,12.236-16.387,19.503c-8.907,13.712-9.254,14.248-13.249,22.468c-2.547,5.874-5.81,13.771-7.956,19.803
					c-5.226,17.071,37.266,54.468,103.583,89.379c74.641,39.293,151.197,60.557,170.99,47.493c3.61-5.458,6.899-11.231,9.833-17.311
					C406.572,251.698,408.183,211.092,396.602,174.395z"/>
				
					<radialGradient id="SVGID_4_" cx="-2505.9072" cy="850.9238" r="137.5971" fx="-2643.4822" fy="853.3903" gradientTransform="matrix(1 0 0 1 2916 -684.4287)" gradientUnits="userSpaceOnUse">
					<stop  offset="0" style="stop-color:#9CAD4C"/>
					<stop  offset="1" style="stop-color:#73633D"/>
				</radialGradient>
				<path fill="url(#SVGID_4_)" d="M403.046,209.041c3.172-2.093,5.06-5.053,4.622-8.702c-0.575-4.016-1.238-9.389-1.987-13.376
					c-4.199-18.097-7.282-28.656-17.379-47.223l-5.096-8.384c3.645,5.474,3.347,9.783-0.38,12.243
					c11.356,20.154,17.945,42.354,20.837,65.443"/>
			</g>
			<g id="fgcolors_1_">
				
					<radialGradient id="SVGID_5_" cx="-2653.1382" cy="851.918" r="282.3799" gradientTransform="matrix(1 0 0 1 2916 -684.4287)" gradientUnits="userSpaceOnUse">
					<stop  offset="0" style="stop-color:#71BEE6"/>
					<stop  offset="1" style="stop-color:#3871E4"/>
				</radialGradient>
				<path fill="url(#SVGID_5_)" d="M124.829,160.82c-5.556,0-12.378-0.071-15.958,2.291c-2.207,1.457-3.616,3.28-4.273,5.424
					c2.22-6.006,5.331-13.964,7.953-19.804c7.91-14.822,8.062-15.105,13.249-22.468c9.984-12.957,10.172-13.205,16.389-19.504
					c1.847-1.721,3.437-3.202,4.863-4.517C147.051,102.243,124.829,134.566,124.829,160.82z"/>
				
					<radialGradient id="SVGID_6_" cx="-2635.4648" cy="854.0156" r="262.2205" gradientTransform="matrix(1 0 0 1 2916 -684.4287)" gradientUnits="userSpaceOnUse">
					<stop  offset="0" style="stop-color:#FF3924"/>
					<stop  offset="1" style="stop-color:#FF0011"/>
				</radialGradient>
				<path fill="url(#SVGID_6_)" d="M292.606,328.14c-13.562-11.614-33.475-24.783-57.647-37.509
					c-55.484-29.208-112.39-45.017-127.105-35.302c-3.543,2.338-4.317,5.941-2.677,10.472c-1.771-5.98-3.934-14.02-5.303-20.106
					c-2.355-15.311-5.289-34.363,1.127-64.166c0.506-2.488,1.965-4.58,4.43-6.208c19.509-12.875,94.956,8.081,168.516,46.805
					c32.042,16.869,58.446,34.328,76.426,49.729C334.465,294.693,314.408,313.938,292.606,328.14"/>
				
					<radialGradient id="SVGID_7_" cx="-2654.3818" cy="918.3125" r="181.0829" gradientTransform="matrix(1 0 0 1 2916 -684.4287)" gradientUnits="userSpaceOnUse">
					<stop  offset="0" style="stop-color:#FDF240"/>
					<stop  offset="0.2407" style="stop-color:#FDDB3C"/>
					<stop  offset="0.7444" style="stop-color:#FCAF33"/>
					<stop  offset="1" style="stop-color:#FC9E30"/>
				</radialGradient>
				<path fill="url(#SVGID_7_)" d="M308.778,361.104c7.204-4.753,2.961-14.741-9.757-27.124
					c22.824-13.273,43.615-31.852,59.859-54.386c14.974,14.583,21.084,26.66,15.574,33.594c-4.663,5.412-11.133,12.41-16.196,17.444
					c-12.173,10.383-12.405,10.584-19.766,15.476C329.179,352.251,319.204,357.273,308.778,361.104 M230.955,367.57
					c22.515,4.171,45.194,3.064,66.408-2.8c13.591-8.965-16.932-38.105-68.168-65.077c-27.53-14.493-55.438-25.41-77.474-31.023
					c1.793,21.048,6.835,40.446,15.027,56.534c9.717,2.475,22.019,7.288,34.153,13.675
					C223.489,350.772,236.945,363.617,230.955,367.57"/>
				
					<linearGradient id="SVGID_8_" gradientUnits="userSpaceOnUse" x1="-2639.5757" y1="833.3398" x2="-2401.3042" y2="767.114" gradientTransform="matrix(1 0 0 1 2916 -684.4287)">
					<stop  offset="0" style="stop-color:#B2D25A"/>
					<stop  offset="0.2455" style="stop-color:#ACC457"/>
					<stop  offset="0.7116" style="stop-color:#9D9E51"/>
					<stop  offset="1" style="stop-color:#93834C"/>
				</linearGradient>
				<path fill="url(#SVGID_8_)" d="M219.367,87.41c14.321-12.178,29.599-19.911,44.639-22.647
					c18.08,4.604,40.975,13.561,63.557,25.45c27.979,14.729,48.427,30.245,55.687,41.144l5.095,8.384
					c7.788,15.018,12.844,25.69,17.381,47.224c0.618,4.009,1.543,9.343,1.985,13.375c-1.94-16.152-37.389-45.819-90.286-73.665
					C282.583,108.331,247.262,94.512,219.367,87.41"/>
				
					<linearGradient id="SVGID_9_" gradientUnits="userSpaceOnUse" x1="-2644.6885" y1="851.0586" x2="-2420.8911" y2="998.7967" gradientTransform="matrix(1 0 0 1 2916 -684.4287)">
					<stop  offset="0" style="stop-color:#F9AB3E"/>
					<stop  offset="1" style="stop-color:#F7612D"/>
				</linearGradient>
				<path fill="url(#SVGID_9_)" d="M285.206,213.416c3.071-5.986,6.081-12.033,9.014-18.112
					c10.292-21.316,18.531-40.729,24.525-57.333c53.548,28.852,88.8,59.104,89.535,75.268c-0.539,29.009-3.863,44.198-15.465,70.661
					c-2.993,5.609-7.112,13.027-10.477,18.418C392.525,286.964,351.643,249.213,285.206,213.416"/>
			</g>
		</g>
		<g id="magni">
			
				<radialGradient id="frame_1_" cx="-669.6548" cy="518.2256" r="415.3181" gradientTransform="matrix(1 0 0 1 972 -240.6465)" gradientUnits="userSpaceOnUse">
				<stop  offset="0" style="stop-color:#563924"/>
				<stop  offset="1" style="stop-color:#110011"/>
			</radialGradient>
			<path id="frame" fill="url(#frame_1_)" d="M144.526,110.783c-5.98,10.882-9.558,22.623-10.625,34.898
				c-3.036,34.902,14.834,68.356,45.53,85.229c26.346,14.482,56.926,14.082,82.013,1.64l7.367,13.375
				c-1.985,3.292-2.218,7.519-0.231,11.128l37.54,68.159c2.965,5.389,9.74,7.351,15.126,4.382c3.385-1.862,5.415-5.221,5.725-8.802
				c0.189-2.121-0.235-4.32-1.337-6.325l-37.542-68.163c-1.989-3.608-5.685-5.67-9.525-5.75l-7.476-13.569
				c11.5-7.638,21.37-18.069,28.465-30.979c5.983-10.881,9.557-22.623,10.624-34.896c3.038-34.903-14.834-68.356-45.531-85.229
				C221.911,52.383,168.022,68.041,144.526,110.783z"/>
			
				<radialGradient id="lens_2_" cx="-1608.3628" cy="-162.6826" r="402.8926" gradientTransform="matrix(0.4294 -0.9031 0.9031 0.4294 1102.9447 -1209.6462)" gradientUnits="userSpaceOnUse">
				<stop  offset="0" style="stop-color:#EDF7FB"/>
				<stop  offset="0.1904" style="stop-color:#EDF2FB"/>
				<stop  offset="0.4306" style="stop-color:#ECE2FB"/>
				<stop  offset="0.6976" style="stop-color:#EAC8FB"/>
				<stop  offset="0.9822" style="stop-color:#E7A4FB"/>
				<stop  offset="1" style="stop-color:#E7A2FB"/>
			</radialGradient>
			<path id="lens_1_" fill="url(#lens_2_)" d="M274.75,96.825c22.401,20.873,30.384,53.053,20.338,81.984
				c-3.53,10.163-9.075,19.349-16.474,27.292c-29.064,31.193-78.086,32.924-109.276,3.859
				c-22.401-20.871-30.384-53.05-20.337-81.981c3.531-10.168,9.073-19.35,16.475-27.294
				C194.538,69.493,243.557,67.764,274.75,96.825z"/>
			<g id="human_2_">
				<path id="head_2_" fill="#5598E5" d="M235.531,127.488c16.604-2.367,31.984,9.175,34.351,25.78
					c2.367,16.605-9.174,31.985-25.778,34.351c-16.606,2.369-31.986-9.173-34.353-25.777
					C207.384,145.235,218.926,129.855,235.531,127.488z"/>
				<path id="body" fill="#5598E5" d="M215.177,187.256c-5.152-3.029-15.152-8.929-20.768-17.925
					c-7.649-12.026-14.228-31.267-8.77-46.807c1.813-5.158-0.897-10.812-6.06-12.625c-5.162-1.813-10.815,0.901-12.625,6.062
					c-7.934,22.575,0.411,50.005,12.82,67.248c4.932,10.976,8.049,26.014,11.05,40.919c26.005,11.451,56.928,7.812,79.639-10.453
					C257.493,198.576,233.817,198.218,215.177,187.256z"/>
			</g>
		</g>
	</g>
</g>
</svg>
